<svg width="59" height="38" viewBox="0 0 59 38" fill="none" xmlns="http://www.w3.org/2000/svg">
<path d="M41.3333 21.6667C38.1333 21.6667 33.1467 22.5733 29.3333 24.3333C25.52 22.5467 20.5333 21.6667 17.3333 21.6667C11.5467 21.6667 0 24.5467 0 30.3333V37.6667H58.6667V30.3333C58.6667 24.5467 47.12 21.6667 41.3333 21.6667ZM30.6667 33.6667H4V30.3333C4 28.8933 10.8267 25.6667 17.3333 25.6667C23.84 25.6667 30.6667 28.8933 30.6667 30.3333V33.6667ZM54.6667 33.6667H34.6667V30.3333C34.6667 29.1067 34.1333 28.04 33.28 27.08C35.6267 26.28 38.5067 25.6667 41.3333 25.6667C47.84 25.6667 54.6667 28.8933 54.6667 30.3333V33.6667ZM17.3333 19C22.48 19 26.6667 14.8133 26.6667 9.66666C26.6667 4.52 22.48 0.333328 17.3333 0.333328C12.1867 0.333328 8 4.52 8 9.66666C8 14.8133 12.1867 19 17.3333 19ZM17.3333 4.33333C20.2667 4.33333 22.6667 6.73333 22.6667 9.66666C22.6667 12.6 20.2667 15 17.3333 15C14.4 15 12 12.6 12 9.66666C12 6.73333 14.4 4.33333 17.3333 4.33333ZM41.3333 19C46.48 19 50.6667 14.8133 50.6667 9.66666C50.6667 4.52 46.48 0.333328 41.3333 0.333328C36.1867 0.333328 32 4.52 32 9.66666C32 14.8133 36.1867 19 41.3333 19ZM41.3333 4.33333C44.2667 4.33333 46.6667 6.73333 46.6667 9.66666C46.6667 12.6 44.2667 15 41.3333 15C38.4 15 36 12.6 36 9.66666C36 6.73333 38.4 4.33333 41.3333 4.33333Z" fill="#FDB100"/>
</svg>
